<?xml version="1.0" standalone="no"?>
<!DOCTYPE svg PUBLIC "-//W3C//DTD SVG 1.1//EN" "http://www.w3.org/Graphics/SVG/1.1/DTD/svg11.dtd" >
<svg xmlns="http://www.w3.org/2000/svg">
<metadata>Generated by IcoMoon</metadata>
<defs>
<font id="icomoon" horiz-adv-x="1024">
<font-face units-per-em="1024" ascent="960" descent="-64" />
<missing-glyph horiz-adv-x="1024" />
<glyph unicode="&#x20;" horiz-adv-x="512" d="" />
<glyph unicode="&#xe900;" glyph-name="play" horiz-adv-x="878" d="M438.857 877.714c242.286 0 438.857-196.571 438.857-438.857s-196.571-438.857-438.857-438.857-438.857 196.571-438.857 438.857 196.571 438.857 438.857 438.857zM658.286 407.428c11.429 6.286 18.286 18.286 18.286 31.429s-6.857 25.143-18.286 31.429l-310.857 182.857c-10.857 6.857-25.143 6.857-36.571 0.571-11.429-6.857-18.286-18.857-18.286-32v-365.714c0-13.143 6.857-25.143 18.286-32 5.714-2.857 12-4.571 18.286-4.571s12.571 1.714 18.286 5.143z" />
<glyph unicode="&#xe901;" d="M27.114 690.62c0 69.57 44.518 131.335 110.518 153.334l323.256 107.753c33.179 11.058 69.048 11.058 102.227 0l323.258-107.753c65.996-22.001 110.515-83.765 110.515-153.336v-201.373c0-296.432-299.56-476.362-427.774-539.798-36.235-17.929-77.992-17.929-114.226 0-128.213 63.436-427.774 243.364-427.774 539.798v201.373z" />
<glyph unicode="&#xe902;" d="M711.727 591.992c21.038-21.038 21.038-55.152 0-76.19l-185.028-185.028c-37.872-37.872-99.274-37.872-137.148 0l-77.277 77.277c-21.039 21.038-21.039 55.152 0 76.19 21.041 21.041 55.152 21.041 76.193 0l69.655-69.655 177.408 177.408c21.041 21.041 55.152 21.041 76.193 0z" />
<glyph unicode="&#xe903;" d="M1023.94 447.94c0-282.737-229.203-511.94-511.94-511.94s-511.94 229.203-511.94 511.94c0 282.737 229.203 511.94 511.94 511.94s511.94-229.203 511.94-511.94z" />
<glyph unicode="&#xe904;" d="M512.001 959.999c-67.23 0-133.801-13.241-195.912-38.969s-118.548-63.437-166.085-110.975c-47.538-47.538-85.247-103.974-110.975-166.083s-38.969-128.683-38.969-195.912c0-67.23 13.241-133.797 38.969-195.912 25.728-62.111 63.437-118.547 110.975-166.083 47.538-47.541 103.974-85.25 166.085-110.976s128.683-38.967 195.912-38.967v1023.878z" />
<glyph unicode="&#xe905;" d="M512 857.6c28.278 0 51.2-22.923 51.2-51.2v-102.4c0-28.277-22.921-51.2-51.2-51.2s-51.2 22.924-51.2 51.2v102.4c0 28.277 22.921 51.2 51.2 51.2z" />
<glyph unicode="&#xe906;" d="M204.8 755.2h614.4c113.108 0 204.8-91.692 204.8-204.8v-307.2c0-113.108-91.692-204.8-204.8-204.8h-614.4c-113.108 0-204.8 91.692-204.8 204.8v307.2c0 113.108 91.692 204.8 204.8 204.8z" />
<glyph unicode="&#xe907;" d="M768.001 345.602c28.278 0 51.2 22.921 51.2 51.2 0 28.274-22.921 51.2-51.2 51.2s-51.2-22.925-51.2-51.2c0-28.278 22.921-51.2 51.2-51.2zM921.601 396.802c0-84.832-68.768-153.6-153.6-153.6s-153.6 68.768-153.6 153.6c0 84.828 68.768 153.6 153.6 153.6s153.6-68.772 153.6-153.6z" />
<glyph unicode="&#xe908;" d="M307.2 499.202c0 28.274-22.923 51.2-51.2 51.2s-51.2-22.925-51.2-51.2v-51.2h-51.2c-28.277 0-51.2-22.925-51.2-51.2 0-28.278 22.923-51.2 51.2-51.2h51.2v-51.2c0-28.278 22.923-51.2 51.2-51.2s51.2 22.921 51.2 51.2v51.2h51.2c28.278 0 51.2 22.921 51.2 51.2 0 28.274-22.921 51.2-51.2 51.2h-51.2v51.2z" />
<glyph unicode="&#xe909;" d="M512 871.837c-282.77 0-512-229.23-512-511.999 0-120.033 41.304-230.417 110.474-317.714 9.207-11.62 23.417-17.961 38.243-17.961h726.566c14.828 0 29.037 6.34 38.244 17.961 69.17 87.299 110.473 197.681 110.473 317.714 0 282.769-229.229 511.999-512 511.999z" />
<glyph unicode="&#xe90a;" d="M778.605 554.035c19.993 19.993 19.993 52.412 0 72.405-19.996 19.996-52.412 19.996-72.409 0l-167.67-167.67c-8.462 2.261-17.355 3.47-26.526 3.47-56.554 0-102.401-45.847-102.401-102.401 0-56.558 45.847-102.401 102.401-102.401s102.401 45.843 102.401 102.401c0 9.171-1.204 18.063-3.47 26.521l167.674 167.674z" />
<glyph unicode="&#xe90b;" d="M27.936 679.101l139.463 188.949c26.946 36.509 69.626 58.053 115.002 58.053h459.2c45.374 0 88.056-21.545 115.003-58.053l139.46-188.949c37.82-51.237 37.181-121.312-1.566-171.85l-369.064-481.385c-57.212-74.627-169.654-74.627-226.871-0.004l-369.062 481.389c-38.746 50.539-39.386 120.614-1.568 171.85z" />
<glyph unicode="&#xe90c;" d="M1023.991 592.586h-1023.979c-0.347 30.344 8.944 60.789 27.912 86.499l139.474 188.967c26.946 36.509 69.627 58.053 115.003 58.053h459.199c45.379 0 88.056-21.545 115.003-58.053l139.511-189.017c18.947-25.695 28.224-56.125 27.876-86.448z" />
<glyph unicode="&#xe90d;" glyph-name="youtube" horiz-adv-x="983" d="M491.503 841.2c42.043 0 85.108-1.102 126.891-2.839l49.366-2.36 47.253-2.791 44.24-3.043 40.347-3.115c90.338-7.331 162.938-77.243 171.77-168.252l1.956-20.866 3.686-44.724c3.445-46.363 5.991-96.913 5.991-145.208 0-48.3-2.546-98.851-5.991-145.214l-3.686-44.722c-0.644-7.141-1.297-14.107-1.956-20.865-8.833-91.012-81.433-160.923-171.77-168.251l-40.347-3.116-44.24-3.042-47.253-2.792-49.366-2.364c-41.783-1.735-84.848-2.836-126.891-2.836s-85.108 1.102-126.89 2.836l-49.371 2.364-47.25 2.792-44.241 3.042-40.347 3.116c-90.338 7.328-162.938 77.24-171.772 168.251l-1.955 20.865-3.686 44.722c-3.446 46.364-5.993 96.915-5.993 145.214 0 48.295 2.546 98.847 5.993 145.208l3.686 44.724c0.644 7.141 1.298 14.107 1.955 20.866 8.833 91.010 81.434 160.922 171.772 168.252l40.347 3.115 44.241 3.043 47.25 2.791 49.371 2.36c41.78 1.738 84.847 2.839 126.89 2.839zM491.503 742.9c-40.568 0-82.282-1.068-122.893-2.758l-48.061-2.298-46.138-2.725-43.352-2.981-39.703-3.065c-43.71-3.547-77.723-36.92-81.882-79.771-5.766-59.402-11.173-133.381-11.173-201.303s5.407-141.902 11.173-201.305c4.159-42.849 38.172-76.223 81.882-79.771l39.703-3.067 43.352-2.983 46.138-2.723 48.061-2.3c40.61-1.686 82.324-2.753 122.893-2.753 40.563 0 82.282 1.067 122.89 2.753l48.064 2.3 46.137 2.723 43.351 2.983 39.703 3.067c43.71 3.548 77.726 36.922 81.884 79.771 5.766 59.403 11.172 133.384 11.172 201.305s-5.407 141.9-11.172 201.303c-4.158 42.849-38.175 76.224-81.884 79.771l-39.703 3.065-43.351 2.981-46.137 2.725-48.064 2.298c-40.608 1.691-82.327 2.758-122.89 2.758zM393.202 567.181c0 21.188 21.41 34.961 40.244 27.474l3.991-1.934 206.431-119.181c18.146-10.479 19.543-35.467 4.188-48.172l-4.188-2.905-206.431-119.185c-18.347-10.597-40.981 1.057-43.916 21.114l-0.319 4.423v238.366z" />
<glyph unicode="&#xe90e;" glyph-name="telegram" horiz-adv-x="983" d="M981.981 782.485c9.394 56.959-47.642 101.947-100.846 79.545l-836.279-352.118c-58.315-24.55-61.302-108.852 0.042-134.282 45.387-18.813 114.85-46.401 184.515-69.371 57.144-18.838 119.437-36.326 169.34-41.275 13.662-16.344 30.858-32.042 48.325-46.405 26.751-22.002 58.964-44.698 92.214-66.427 66.588-43.51 140.474-85.142 190.272-112.192 59.512-32.326 130.756 4.895 141.456 69.762l110.959 672.762zM138.645 443.28l739.619 311.417-103.565-627.946c-48.832 26.555-119.224 66.324-181.905 107.277-31.709 20.726-60.671 41.246-83.592 60.094-8.161 6.715-15.072 12.828-20.829 18.3l193.716 193.721c19.097 19.097 19.097 50.064 0 69.161s-50.064 19.097-69.161 0l-212.159-212.158c-35.869 4.587-85.871 17.919-140.73 36.004-42.221 13.923-84.671 29.735-121.393 44.131z" />
<glyph unicode="&#xe90f;" glyph-name="roidino" horiz-adv-x="4216" d="M2928.167-29.441h-245.722c-29.14 0-52.739 24.442-52.739 54.618s23.599 54.618 52.739 54.618h245.722c29.134 0 52.739-24.442 52.739-54.618s-23.605-54.618-52.739-54.618zM1680.002-33.44h-245.722c-29.134 0-52.739 24.442-52.739 54.618 0 30.17 23.605 54.618 52.739 54.618h245.722c29.14 0 52.745-24.449 52.745-54.618 0-30.176-23.605-54.618-52.745-54.618zM3369.19-33.766h-47.691c-53.968 0-97.672 45.264-97.672 101.141 0 55.883 43.704 101.141 97.672 101.141h47.691c59.094 0 113.783 20.063 158.060 53.859-12.775-1.518-25.718-2.277-38.82-2.277-189.477 0-343.225 159.217-343.225 354.924s153.748 354.837 342.653 354.837c188.911 0 343.225-159.214 343.225-354.921v-130.472c0-263.728-207.222-478.317-461.893-478.317v0.084zM3488.431 727.578c-81.801 0-147.887-68.439-147.887-152.639s66.086-152.639 147.399-152.639c81.307 0 147.64 68.27 147.887 152.133v0.506c0 84.115-66.092 152.639-147.399 152.639zM224.046-33.766h-47.695c-53.963 0-97.669 45.264-97.669 101.141 0 55.883 43.706 101.141 97.669 101.141h47.695c57.788 0 111.342 19.136 155.050 51.583h-36.382c-188.99 0-342.738 159.217-342.738 354.84s153.748 354.921 342.738 354.921 343.224-159.214 343.224-354.921v-130.472c0-5.901-0.078-11.8-0.325-17.7l-0.404-206.752h-53.311c-77.729-150.953-231.396-253.865-407.851-253.865v0.084zM343.284 727.578c-81.798 0-147.887-68.439-147.887-152.639s66.089-152.639 147.399-152.639h147.074c0.244 2.95 0.407 5.984 0.57 8.934l0.325 143.621c0 84.116-66.089 152.639-147.399 152.639l-0.081 0.084zM2700.075 202.288h-39.398c-101.25 0-198.59 44.246-267.122 121.536l-339.972 383.158c-36.464 41.131-33.856 105.103 5.861 142.947 39.717 37.76 101.496 35.062 138.039-6.069l339.972-383.157c31.579-35.652 76.584-56.050 123.307-56.050h39.392c92.3 0 167.42 77.794 167.42 173.373v87.909c0 55.881 43.71 101.141 97.672 101.141s97.672-45.26 97.672-101.141v-87.909c0-207.174-162.704-375.654-362.764-375.654l-0.078-0.084zM2247.319 202.078h-307.899c-53.962 0-97.672 45.264-97.672 101.141 0 55.883 43.71 101.143 97.672 101.143h307.899c53.968 0 97.672-45.26 97.672-101.143 0-55.877-43.704-101.141-97.672-101.141zM1402.96 212.299h-865.106c-53.962 0-97.669 45.258-97.669 101.141s43.707 101.141 97.669 101.141h865.106c91.161 0 165.306 76.783 165.306 171.182v76.025c0 55.881 43.71 101.142 97.672 101.142s97.666-45.261 97.666-101.142v-76.025c0-205.905-161.806-373.464-360.644-373.464zM945.53 807.743h-0.090c-45.408 0-82.222-38.12-82.222-85.142v-0.096c0-47.023 36.814-85.143 82.222-85.143h0.090c45.408 0 82.222 38.12 82.222 85.143v0.096c0 47.023-36.814 85.142-82.222 85.142zM3870.197-33.862c-39.151 0-76.025 24.527-91.083 64.556-19.533 52.088 5.373 110.669 55.672 130.895 112.97 45.432 185.899 155.928 185.899 281.426v142.188c0 55.881 43.71 101.141 97.672 101.141s97.666-45.26 97.666-101.141v-142.188c0-209.534-121.921-394.030-310.507-469.969-11.636-4.722-23.605-6.909-35.32-6.909z" />
<glyph unicode="&#xe910;" glyph-name="instagram" horiz-adv-x="983" d="M709.946 939.502c150.804 0 273.057-122.252 273.057-273.057v-436.889c0-150.804-122.253-273.057-273.057-273.057h-436.892c-150.805 0-273.057 122.253-273.057 273.057v436.889c0 150.805 122.252 273.057 273.057 273.057h436.892zM709.946 830.279h-436.892c-90.484 0-163.834-73.351-163.834-163.834v-436.889c0-90.486 73.351-163.834 163.834-163.834h436.892c90.486 0 163.834 73.348 163.834 163.834v436.889c0 90.484-73.348 163.834-163.834 163.834zM491.501 666.444c120.642 0 218.446-97.801 218.446-218.443s-97.803-218.446-218.446-218.446c-120.644 0-218.446 97.803-218.446 218.446s97.802 218.443 218.446 218.443zM491.501 557.224c-60.323 0-109.223-48.9-109.223-109.223s48.9-109.223 109.223-109.223c60.323 0 109.223 48.9 109.223 109.223s-48.9 109.223-109.223 109.223zM737.252 748.361c30.162 0 54.611-24.451 54.611-54.611s-24.45-54.611-54.611-54.611c-30.162 0-54.611 24.451-54.611 54.611s24.45 54.611 54.611 54.611z" />
<glyph unicode="&#xe911;" glyph-name="x" horiz-adv-x="983" d="M939.549 876.946l-328.41-369.469 343.221-441.273c9.268-11.928 14.992-26.22 16.538-41.244 1.542-15.027-1.157-30.183-7.805-43.751-6.644-13.563-16.956-24.998-29.769-32.981-12.813-7.995-27.627-12.229-42.727-12.229h-127.402c-12.281 0.017-24.394 2.837-35.428 8.25-11.021 5.413-20.669 13.261-28.206 22.961l-265.389 341.201-316.147-355.658c-18.309-20.599-49.85-22.456-70.449-4.148s-22.454 49.85-4.145 70.45l328.425 369.476-343.218 441.266c-9.266 11.927-14.992 26.222-16.536 41.242s1.157 30.185 7.8 43.751c6.645 13.566 16.959 24.997 29.772 32.983 12.812 7.993 27.61 12.227 42.711 12.226h127.41c12.281-0.016 24.393-2.836 35.417-8.247 11.013-5.399 20.675-13.271 28.206-22.961l265.386-341.197 316.141 355.656c18.307 20.599 49.85 22.455 70.45 4.146s22.452-49.85 4.144-70.449zM481.395 511.737l-271.035 348.466h-78.917l307.858-395.817 42.093 47.351zM501.619 384.271l42.093 47.351 307.863-395.825h-78.915l-271.039 348.474z" />
<glyph unicode="&#xe912;" glyph-name="aparat" horiz-adv-x="983" d="M792.102 93.869c-3.822-3.277-7.7-6.492-11.624-9.638-8.434-6.767-17.117-13.246-25.985-19.399-19.276-13.373-39.535-25.272-60.604-35.598-9.81-4.805-19.792-9.269-29.934-13.382l-0.266-0.106c-4.69-1.901-9.417-3.723-14.176-5.472-20.316-7.467-21.090-43.024-0.193-48.665 6.492-1.72 13.001-2.998 19.485-3.846 13.234-1.733 26.391-1.683 39.186-0.012 40.473 5.28 77.373 26.763 101.945 59.367 7.664 10.17 14.131 21.426 19.128 33.612 2.494 6.070 4.62 12.37 6.349 18.883 5.591 21.017-26.796 38.404-43.311 24.257zM981.657 626.592c-0.827-6.7-2.109-13.423-3.871-20.132-5.652-21.395-43.27-20.428-50.79 0.386-1.741 4.818-3.559 9.608-5.46 14.367l-0.049 0.125c-3.822 9.566-7.959 19.010-12.411 28.316-4.878 10.192-10.134 20.219-15.753 30.059-6.144 10.75-12.702 21.233-19.661 31.428-5.956 8.732-12.227 17.281-18.756 25.577-3.207 4.072-6.48 8.090-9.818 12.052-14.135 16.778 3.351 48.992 24.551 43.353 6.631-1.76 13.042-3.931 19.214-6.479 11.944-4.932 22.995-11.275 33.006-18.779 17.052-12.784 31.080-28.935 41.361-47.208 9.605-17.064 15.938-35.978 18.412-55.731 1.528-12.205 1.581-24.73 0.025-37.335zM1.832 273.409c0.835 5.644 1.996 11.305 3.496 16.949 5.074 19.145 36.952 18.596 43.638-0.045 1.539-4.289 3.148-8.577 4.81-12.816 4.762-12.141 10.025-24.060 15.772-35.734 9.831-19.964 21.078-39.195 33.655-57.553 7.275-10.617 14.995-20.943 23.143-30.941l-13.015-49c-5.682 1.511-11.203 3.322-16.55 5.415-14.184 5.546-27.147 13.066-38.652 22.155-30.24 23.88-50.409 58.565-56.209 96.649-2.225 14.615-2.335 29.725-0.087 44.921zM113.331 104.269l13.054 48.951c2.857-3.506 5.766-6.971 8.727-10.396 13.057-15.106-2.492-43.7-21.782-38.556zM316.243 937.952c5.845-0.846 11.704-2.042 17.551-3.599l-13.444-50.464c-11.565-4.466-22.935-9.388-34.084-14.75-20.317-9.772-39.902-21.006-58.597-33.615-10.417-7.025-20.586-14.5-30.423-22.363-3.659-2.926-7.277-5.908-10.851-8.946-15.399-13.092-44.011 2.592-38.838 22.132 1.549 5.837 3.416 11.504 5.58 16.987 5.476 13.883 12.844 26.591 21.719 37.9 24.14 30.757 59.431 51.167 98.138 56.743 14.088 2.029 28.629 2.094 43.249-0.023zM333.794 934.353c19.693-5.135 18.957-38.838-0.241-45.593-4.321-1.52-8.617-3.104-12.886-4.749l13.127 50.342zM169.407 448.005c0 177.887 144.207 322.094 322.094 322.094 177.889 0 322.097-144.207 322.097-322.094 0-177.889-144.208-322.097-322.097-322.097-177.887 0-322.094 144.208-322.094 322.097zM491.501 852.019c-223.13 0-404.014-180.883-404.014-404.014 0-223.134 180.884-404.017 404.014-404.017 223.134 0 404.017 180.883 404.017 404.017 0 223.13-180.883 404.014-404.017 404.014zM491.513 415.286c18.067 0 32.715 14.647 32.715 32.719 0 18.067-14.647 32.715-32.715 32.715s-32.715-14.647-32.715-32.715c0-18.072 14.647-32.719 32.715-32.719zM318.411 614.84c-10.752-45.394 17.255-91.054 62.782-101.938 45.526-10.752 91.188 17.388 101.936 62.782 10.752 45.394-17.252 91.054-62.779 101.938-45.395 10.752-91.055-17.255-101.939-62.782zM556.398 558.296c-10.752-45.394 17.256-91.056 62.783-101.939 45.392-10.883 91.054 17.256 101.937 62.783 10.752 45.394-17.256 91.054-62.783 101.938-45.392 10.751-91.054-17.255-101.937-62.782zM261.734 376.985c-10.751-45.396 17.255-91.054 62.782-101.937 45.527-10.887 91.188 17.252 101.936 62.779 10.752 45.396-17.253 91.054-62.781 101.941-45.394 10.748-91.054-17.256-101.938-62.783zM499.722 320.308c-10.752-45.396 17.256-91.054 62.783-101.937 45.527-10.887 91.185 17.252 101.937 62.779 10.752 45.396-17.256 91.054-62.783 101.941-45.392 10.748-91.054-17.256-101.937-62.783z" />
<glyph unicode="&#xe913;" glyph-name="download1" d="M568.893 837.078c0 31.419-25.469 56.889-56.889 56.889s-56.889-25.469-56.889-56.889v-460.018l-158.89 158.885c-22.217 22.221-58.236 22.221-80.453 0-22.217-22.215-22.217-58.232 0-80.453l215.775-215.774c44.436-44.436 116.475-44.436 160.91 0l215.66 215.665c22.221 22.215 22.221 58.237 0 80.453-22.215 22.215-58.232 22.215-80.453 0l-158.771-158.771v460.012zM56.888 325.081c31.418 0 56.889-25.475 56.889-56.889v-113.778c0-31.419 25.469-56.889 56.889-56.889h682.667c31.419 0 56.889 25.469 56.889 56.889v113.778c0 31.414 25.469 56.889 56.889 56.889s56.889-25.475 56.889-56.889v-113.778c0-94.26-76.412-170.667-170.667-170.667h-682.667c-94.257 0-170.667 76.407-170.667 170.667v113.778c0 31.414 25.469 56.889 56.889 56.889z" />
<glyph unicode="&#xe914;" glyph-name="dark-mode" d="M511.999 79.629h-0.004v736.748h0.004c203.448 0 368.372-164.927 368.372-368.374 0-203.449-164.925-368.374-368.372-368.374zM511.999-64c282.771 0 512 229.229 512 512.001 0 282.769-229.229 511.999-512 511.999-282.769 0-511.999-229.23-511.999-511.999 0-282.773 229.23-512.001 511.999-512.001z" />
<glyph unicode="&#xe915;" horiz-adv-x="983" d="M983.003 448c0-271.45-220.053-491.503-491.503-491.503s-491.503 220.053-491.503 491.503c0 271.45 220.053 491.503 491.503 491.503s491.503-220.053 491.503-491.503z" />
<glyph unicode="&#xe916;" horiz-adv-x="983" d="M983.003 448c0-271.45-220.053-491.503-491.503-491.503s-491.503 220.053-491.503 491.503c0 271.45 220.053 491.503 491.503 491.503s491.503-220.053 491.503-491.503z" />
<glyph unicode="&#xe917;" horiz-adv-x="983" d="M652.004 546.3c0-88.681-71.89-160.57-160.57-160.57s-160.57 71.89-160.57 160.57c0 88.681 71.89 160.57 160.57 160.57s160.57-71.89 160.57-160.57z" />
<glyph unicode="&#xe918;" horiz-adv-x="983" d="M169.111 76.989c48.827 130.592 174.74 223.572 322.368 223.572 147.631 0 273.542-92.98 322.369-223.572-86.296-75.044-199.026-120.48-322.369-120.48s-236.072 45.435-322.368 120.48z" />
<glyph unicode="&#xe919;" horiz-adv-x="983" d="M163.831 939.502h109.223c90.484 0 163.834-73.351 163.834-163.834v-109.223c0-90.484-73.351-163.834-163.834-163.834h-109.223c-90.484 0-163.834 73.351-163.834 163.834v109.223c0 90.484 73.351 163.834 163.834 163.834z" />
<glyph unicode="&#xe91a;" horiz-adv-x="983" d="M163.831 393.39h109.223c90.484 0 163.834-73.351 163.834-163.834v-109.223c0-90.484-73.351-163.834-163.834-163.834h-109.223c-90.484 0-163.834 73.351-163.834 163.834v109.223c0 90.484 73.351 163.834 163.834 163.834z" />
<glyph unicode="&#xe91b;" horiz-adv-x="983" d="M709.946 939.502h109.223c90.484 0 163.834-73.351 163.834-163.834v-109.223c0-90.484-73.351-163.834-163.834-163.834h-109.223c-90.484 0-163.834 73.351-163.834 163.834v109.223c0 90.484 73.351 163.834 163.834 163.834z" />
<glyph unicode="&#xe91c;" horiz-adv-x="983" d="M709.946 393.39h109.223c90.484 0 163.834-73.351 163.834-163.834v-109.223c0-90.484-73.351-163.834-163.834-163.834h-109.223c-90.484 0-163.834 73.351-163.834 163.834v109.223c0 90.484 73.351 163.834 163.834 163.834z" />
<glyph unicode="&#xe91d;" d="M568.893 846.221c0 31.419-25.469 56.889-56.889 56.889s-56.889-25.469-56.889-56.889v-460.018l-158.89 158.885c-22.217 22.221-58.236 22.221-80.453 0-22.217-22.215-22.217-58.232 0-80.453l215.775-215.774c44.436-44.436 116.475-44.436 160.91 0l215.66 215.665c22.221 22.215 22.221 58.237 0 80.453-22.215 22.215-58.232 22.215-80.453 0l-158.771-158.771v460.012z" />
<glyph unicode="&#xe91e;" d="M56.888 334.224c31.418 0 56.889-25.475 56.889-56.889v-113.778c0-31.419 25.469-56.889 56.889-56.889h682.667c31.419 0 56.889 25.469 56.889 56.889v113.778c0 31.414 25.469 56.889 56.889 56.889s56.889-25.475 56.889-56.889v-113.778c0-94.26-76.412-170.667-170.667-170.667h-682.667c-94.257 0-170.667 76.407-170.667 170.667v113.778c0 31.414 25.469 56.889 56.889 56.889z" />
<glyph unicode="&#xe91f;" horiz-adv-x="983" d="M739.471 200.033c20.204 20.204 52.964 20.204 73.167 0l155.212-155.212c20.204-20.209 20.204-52.964 0-73.172-20.204-20.204-52.964-20.204-73.167 0l-155.212 155.212c-20.204 20.209-20.204 52.964 0 73.172z" />
<glyph unicode="&#xe920;" horiz-adv-x="983" d="M465.631 111.712c200.016 0 362.16 162.145 362.16 362.16 0 200.013-162.145 362.158-362.16 362.158s-362.16-162.145-362.16-362.158c0-200.016 162.145-362.16 362.16-362.16zM931.266 473.872c0-257.165-208.47-465.635-465.635-465.635-257.163 0-465.635 208.47-465.635 465.635 0 257.16 208.472 465.632 465.635 465.632 257.165 0 465.635-208.472 465.635-465.632z" />
<glyph unicode="&#xe921;" glyph-name="up" d="M121.794 169.223c-26.477-28.242-72.37-28.242-100.613-1.765-14.121 14.121-21.182 33.537-21.182 51.189s7.060 35.302 19.416 49.423l441.281 458.933c14.121 14.121 31.772 21.182 51.189 21.182s37.068-7.060 51.189-21.182l441.281-458.933c26.477-28.242 26.477-72.37-1.765-100.613-28.242-26.477-72.37-26.477-100.613 1.765l-390.093 405.979z" />
<glyph unicode="&#xe922;" glyph-name="right" d="M233.223 838.207c-28.242 26.477-28.242 72.37-1.765 100.612 14.121 14.121 33.537 21.181 51.189 21.181s35.302-7.060 49.423-19.416l458.933-441.282c14.121-14.121 21.181-31.773 21.181-51.189s-7.060-37.068-21.181-51.189l-458.933-441.282c-28.242-26.477-72.37-26.477-100.612 1.765-26.477 28.242-26.477 72.37 1.765 100.612l405.98 390.094z" />
<glyph unicode="&#xe923;" glyph-name="down" d="M902.207 726.777c26.477 28.242 72.37 28.242 100.612 1.765 14.121-14.121 21.181-33.537 21.181-51.189s-7.060-35.302-19.416-49.423l-441.282-458.934c-14.121-14.121-31.772-21.181-51.189-21.181s-37.068 7.060-51.189 21.181l-441.282 458.934c-26.477 28.242-26.477 72.37 1.765 100.612 28.242 26.477 72.37 26.477 100.612-1.765l390.093-405.979z" />
<glyph unicode="&#xe924;" glyph-name="left" d="M790.777 57.793c28.242-26.477 28.242-72.37 1.765-100.612-14.121-14.121-33.537-21.181-51.189-21.181s-35.302 7.060-49.423 19.416l-458.934 441.282c-14.121 14.121-21.181 31.772-21.181 51.189s7.060 37.068 21.181 51.189l458.934 441.282c28.242 26.477 72.37 26.477 100.612-1.765 26.477-28.242 26.477-72.37-1.765-100.612l-405.979-390.093z" />
<glyph unicode="&#xe925;" d="M128 576c70.692 0 128-57.308 128-128s-57.308-128-128-128c-70.692 0-128 57.308-128 128s57.308 128 128 128z" />
<glyph unicode="&#xe926;" d="M512 576c70.692 0 128-57.308 128-128s-57.308-128-128-128c-70.692 0-128 57.308-128 128s57.308 128 128 128z" />
<glyph unicode="&#xe927;" d="M896 576c70.692 0 128-57.308 128-128s-57.308-128-128-128c-70.692 0-128 57.308-128 128s57.308 128 128 128z" />
<glyph unicode="&#xe928;" glyph-name="chosen" d="M630.301 908.64c31.92-34.154 77.043-52.846 123.765-51.267 93.679 3.166 170.47-73.623 167.303-167.303-1.574-46.723 17.117-91.848 51.272-123.769 68.479-64.002 68.479-172.597 0-236.604-34.155-31.92-52.846-77.043-51.272-123.765 3.167-93.679-73.623-170.47-167.303-167.303-46.722 1.574-91.846-17.117-123.765-51.266-64.004-68.485-172.601-68.485-236.603 0-31.921 34.149-77.046 52.841-123.769 51.266-93.679-3.167-170.469 73.623-167.303 167.303 1.578 46.722-17.112 91.846-51.267 123.765-68.48 64.008-68.48 172.601 0 236.604 34.154 31.921 52.846 77.046 51.267 123.769-3.166 93.679 73.623 170.469 167.303 167.303 46.723-1.578 91.848 17.112 123.769 51.267 64.002 68.48 172.599 68.48 236.603 0zM743.44 531.456c23.469 23.471 23.469 61.525 0 84.995s-61.525 23.47-84.994 0l-209.399-209.4-83.452 83.451c-23.47 23.471-61.525 23.471-84.995 0s-23.471-61.525 0-84.995l168.447-168.45 294.395 294.399z" />
<glyph unicode="&#xe929;" glyph-name="checked" horiz-adv-x="1097" d="M495.982 412.986l-72.526 71.275c-9.17 9.17-20.625 13.754-34.363 13.754s-25.625-5.001-35.662-15.005c-9.17-9.17-13.756-20.84-13.756-35.012s4.586-25.842 13.756-35.012l107.539-107.539c10.004-10.004 21.674-15.005 35.012-15.005s25.009 5.001 35.012 15.005l212.576 212.576c10.004 10.004 14.789 21.675 14.357 35.012s-5.218 25.009-14.357 35.012c-10.004 10.004-21.874 15.205-35.613 15.606s-25.626-4.384-35.662-14.355l-176.313-176.313zM355.932-39.676l-72.526 122.548-137.549 30.011c-12.505 2.497-22.508 8.947-30.011 19.351s-10.421 21.879-8.753 34.412l13.754 141.304-93.783 107.539c-8.336 9.17-12.505 20.007-12.505 32.511s4.168 23.342 12.505 32.511l93.783 107.539-13.754 141.3c-1.667 12.505 1.25 23.975 8.753 34.412s17.506 16.889 30.011 19.356l137.549 30.011 72.526 122.544c6.669 10.837 15.839 18.14 27.51 21.908s23.342 3.135 35.012-1.901l130.046-55.020 130.046 55.020c11.67 5.001 23.342 5.635 35.012 1.901s20.841-11.038 27.51-21.908l72.526-122.544 137.545-30.011c12.508-2.501 22.512-8.97 30.011-19.407 7.507-10.437 10.428-21.89 8.755-34.361l-13.757-141.3 93.785-107.539c8.338-9.17 12.508-20.007 12.508-32.511s-4.17-23.341-12.508-32.511l-93.785-107.539 13.757-141.304c1.673-12.501-1.248-23.968-8.755-34.412-7.498-10.436-17.502-16.886-30.011-19.351l-137.545-30.011-72.526-122.548c-6.669-10.836-15.839-18.134-27.51-21.904s-23.342-3.137-35.012 1.896l-130.046 55.020-130.046-55.020c-11.67-5.001-23.342-5.634-35.012-1.896-11.67 3.729-20.841 11.035-27.51 21.904z" />
<glyph unicode="&#xe92a;" d="M825.703 731.404l-568.889-341.335-58.537 97.564 568.887 341.335 58.539-97.564z" />
<glyph unicode="&#xe92b;" d="M825.701 740.547l-568.887-341.335-58.539 97.564 568.887 341.335 58.539-97.564z" />
<glyph unicode="&#xe92c;" d="M767.164 57.879l-568.887 341.333 58.539 97.564 568.887-341.333-58.539-97.564z" />
<glyph unicode="&#xe92d;" d="M796.444 618.667c94.254 0 170.667 76.41 170.667 170.667s-76.412 170.667-170.667 170.667c-94.26 0-170.667-76.41-170.667-170.667s76.407-170.667 170.667-170.667z" />
<glyph unicode="&#xe92e;" d="M796.444-64c94.254 0 170.667 76.407 170.667 170.667s-76.412 170.667-170.667 170.667c-94.26 0-170.667-76.407-170.667-170.667s76.407-170.667 170.667-170.667z" />
<glyph unicode="&#xe92f;" glyph-name="wifi" d="M857.382 44.085c-0.134 191.841-73.319 383.375-219.611 529.663-146.291 146.291-337.821 219.477-529.666 219.609-46.011 0.032-83.285 37.357-83.254 83.366s37.357 83.284 83.368 83.252c234.192-0.16 468.604-89.647 647.37-268.41s268.251-413.176 268.411-647.371c0.032-46.010-37.242-83.335-83.251-83.366s-83.335 37.242-83.366 83.258zM402.284 338.359c81.488-81.486 122.143-188.167 122.001-295.080-0.058-46.010 37.196-83.355 83.206-83.411s83.36 37.191 83.418 83.2c0.185 149.365-56.762 299.068-170.811 413.109-114.042 114.044-263.74 170.995-413.105 170.806-46.010-0.058-83.263-37.404-83.204-83.415s37.405-83.261 83.415-83.204c106.912 0.134 213.591-40.518 295.078-122.004zM48.803 220.464c-65.070-65.069-65.070-170.567 0-235.637s170.567-65.069 235.637 0c65.069 65.069 65.069 170.567 0 235.637s-170.567 65.069-235.637 0z" />
<glyph unicode="&#xe930;" glyph-name="shield_chcek" d="M491.663 955.825c6.427 2.754 13.346 4.175 20.337 4.175s13.911-1.421 20.337-4.175l330.049-141.487c18.573-7.963 34.404-21.201 45.522-38.075 11.124-16.875 17.050-36.642 17.039-56.851v-345.656c-0.005-63.692-16.848-126.249-48.821-181.336s-77.939-100.748-133.237-132.35l-205.287-117.277c-7.8-4.455-16.623-6.793-25.603-6.793s-17.805 2.338-25.603 6.793l-205.287 117.277c-55.316 31.611-101.29 77.283-133.264 132.392s-48.806 117.69-48.794 181.398v345.552c0.002 20.201 5.931 39.957 17.052 56.82s26.944 30.095 45.511 38.054l330.049 141.538zM703.349 518.962c9.404 9.735 14.608 22.774 14.489 36.308s-5.549 26.48-15.119 36.051c-9.57 9.571-22.516 14.999-36.050 15.117s-26.574-5.085-36.308-14.488l-169.98-169.982-66.743 66.743c-9.735 9.404-22.774 14.607-36.308 14.49s-26.48-5.546-36.051-15.114c-9.571-9.575-14.999-22.521-15.117-36.055s5.085-26.574 14.488-36.308l103.237-103.237c9.68-9.673 22.807-15.109 36.495-15.109s26.814 5.436 36.495 15.109l206.474 206.476z" />
<glyph unicode="&#xe931;" d="M227.554 277.333c94.257 0 170.667 76.407 170.667 170.667s-76.41 170.667-170.667 170.667c-94.257 0-170.667-76.407-170.667-170.667s76.41-170.667 170.667-170.667z" />
<glyph unicode="&#xe932;" d="M1024 448c0-282.77-229.23-512-512-512s-512 229.23-512 512c0 282.77 229.23 512 512 512s512-229.23 512-512z" />
<glyph unicode="&#xe933;" d="M859.803 447.99c0-192.1-155.728-347.826-347.826-347.826s-347.826 155.728-347.826 347.826c0 192.1 155.728 347.826 347.826 347.826s347.826-155.728 347.826-347.826z" />
<glyph unicode="&#xe934;" d="M691.546 447.995c0-99.155-80.381-179.535-179.535-179.535s-179.535 80.381-179.535 179.535c0 99.155 80.381 179.535 179.535 179.535s179.535-80.381 179.535-179.535z" />
<glyph unicode="&#xe935;" glyph-name="star" d="M458.269 907.091c5.476 9.398 13.321 17.195 22.753 22.616s20.118 8.271 30.996 8.271c10.879 0 21.566-2.852 30.999-8.271 9.426-5.419 17.27-13.218 22.746-22.616l139.102-238.783 270.136-58.526c10.625-2.31 20.459-7.364 28.527-14.658 8.061-7.295 14.074-16.575 17.431-26.918s3.95-21.385 1.706-32.025c-2.237-10.64-7.225-20.509-14.47-28.619l-184.138-206.084 27.871-274.963c1.1-10.829-0.662-21.751-5.106-31.684-4.444-9.939-11.416-18.531-20.219-24.929-8.809-6.398-19.137-10.372-29.954-11.528-10.823-1.156-21.758 0.544-31.716 4.939l-252.915 111.478-252.917-111.478c-9.957-4.395-20.893-6.095-31.713-4.939s-21.149 5.13-29.954 11.528c-8.805 6.398-15.777 14.99-20.22 24.929-4.444 9.933-6.204 20.855-5.105 31.684l27.87 274.963-184.138 206.035c-7.255 8.112-12.255 17.983-14.502 28.631s-1.661 21.698 1.699 32.048c3.359 10.35 9.375 19.638 17.446 26.937s17.917 12.352 28.551 14.656l270.135 58.526 139.099 238.783z" />
<glyph unicode="&#xe936;" d="M767.164 48.736l-568.887 341.333 58.537 97.564 568.889-341.333-58.539-97.564z" />
<glyph unicode="&#xe937;" d="M796.444 609.524c94.254 0 170.667 76.41 170.667 170.667s-76.412 170.667-170.667 170.667c-94.26 0-170.667-76.41-170.667-170.667s76.407-170.667 170.667-170.667z" />
<glyph unicode="&#xe938;" glyph-name="game" horiz-adv-x="983" d="M312.23 158.712h120.693v-90.296h116.974v90.296h120.639v118.706h-358.306v-118.706zM729.739 675.98c-13.537 0-26.771-4.076-38.027-11.711s-20.025-18.487-25.203-31.182c-5.177-12.695-6.525-26.663-3.879-40.137 2.65-13.474 9.179-25.847 18.76-35.555 9.581-9.706 21.783-16.313 35.062-18.979 13.279-2.671 27.042-1.278 39.543 3.994s23.183 14.187 30.691 25.621c7.504 11.434 11.502 24.87 11.481 38.609-0.041 18.396-7.266 36.024-20.095 49.023-12.825 12.998-30.208 20.304-48.333 20.318zM908.194 789.556c-23.658 24.070-51.773 43.158-82.723 56.167s-64.131 19.685-97.628 19.642h-472.883c-67.617 0-132.465-27.259-180.277-75.782s-74.673-114.332-74.673-182.953c0-68.621 26.861-134.431 74.673-182.952s112.66-75.78 180.277-75.78h472.883c50.467-0.053 99.811 15.098 141.787 43.532 41.976 28.43 74.691 68.87 94.007 116.187 19.313 47.317 24.351 99.387 14.483 149.614-9.871 50.227-34.206 96.352-69.927 132.531v-0.207zM369.331 534.753l-43.137-43.725-69.907 70.893-69.856-70.893-43.137 43.725 69.907 70.946-69.907 70.893 43.137 43.882 69.856-70.894 69.907 70.894 43.137-43.778-70.060-70.997 70.060-70.946zM729.727 473.952c-25.842-0.041-51.114 7.696-72.622 22.233-21.508 14.541-38.281 35.226-48.206 59.44-9.921 24.216-12.542 50.873-7.533 76.601s17.424 49.37 35.676 67.936c18.252 18.566 41.517 31.221 66.859 36.365 25.338 5.144 51.614 2.545 75.497-7.467s44.306-26.989 58.679-48.781c14.377-21.793 22.061-47.423 22.082-73.649 0.012-35.139-13.713-68.846-38.171-93.725-24.453-24.875-57.635-38.883-92.262-38.953z" />
<glyph unicode="&#xe939;" d="M796.444-73.143c94.254 0 170.667 76.407 170.667 170.667s-76.412 170.667-170.667 170.667c-94.26 0-170.667-76.407-170.667-170.667s76.407-170.667 170.667-170.667z" />
<glyph unicode="&#xe93a;" d="M227.554 268.19c94.257 0 170.667 76.407 170.667 170.667s-76.41 170.667-170.667 170.667c-94.257 0-170.667-76.407-170.667-170.667s76.41-170.667 170.667-170.667z" />
<glyph unicode="&#xe93b;" glyph-name="like" d="M778.993 427.657c-10.857-23.917-39.045-34.503-62.963-23.646s-34.503 39.045-23.646 62.963l86.608-39.317zM850.929 521.043l0.628-47.554c-0.309-0.005-0.618-0.005-0.928 0l0.3 47.554zM976.441 398.841l47.558 0.642v-0.642h-47.558zM976.441 154.314h47.558c0-0.252 0-0.504-0.005-0.756l-47.554 0.756zM850.929 32.398l-0.376 47.554c0.333 0.005 0.671 0.005 1.003 0l-0.628-47.554zM686.473 101.535c-8.532 24.845 4.69 51.896 29.534 60.428 24.839 8.532 51.896-4.69 60.423-29.534l-89.957-30.894zM692.241 466.655c10.677 23.998 38.789 34.793 62.786 24.112 23.998-10.677 34.793-38.789 24.112-62.786l-86.899 38.675zM725.414 398.841v0zM725.414 154.314h47.563l-0.005-0.329-47.558 0.329zM776.458 131.425c8.104-24.982-5.579-51.806-30.566-59.909-24.982-8.104-51.806 5.584-59.909 30.566l90.475 29.343zM778.266 468.504c11.699-23.513 2.126-52.062-21.387-63.766-23.518-11.704-52.067-2.126-63.766 21.387l85.154 42.379zM694.581 497.767l28.083 38.385c0.428-0.318 0.856-0.642 1.275-0.971l-29.358-37.414zM672.637 528.885l-45.58-13.564c-0.171 0.565-0.329 1.137-0.476 1.707l46.056 11.856zM609.88 772.712l45.666 13.289c0.138-0.476 0.271-0.954 0.395-1.434l-46.061-11.855zM486.866 841.798l12.418-45.909c-0.361-0.098-0.728-0.192-1.089-0.281l-11.329 46.19zM426.257 796.873v0zM415.86 722.147l-45.849-12.634-0.118 0.445 45.968 12.189zM451.738 591.93l45.852 12.633c0.066-0.239 0.134-0.481 0.195-0.721l-46.046-11.911zM442.75 549.168v0zM403.267 530.45v47.558c0.281 0 0.561 0 0.842-0.005l-0.842-47.554zM198.215 530.45v-47.563l-0.655 0.009 0.655 47.554zM92.506 488.342v0zM47.563 383.803h-47.563l0.008 0.628 47.555-0.628zM47.563 188.333l-47.558-0.647v0.647h47.558zM92.527 83.832v0zM198.215 41.744l-0.655 47.558h0.655v-47.558zM599.897 41.744v47.558h0.238l-0.238-47.558zM690.335 140.889c13.202 22.709 42.313 30.414 65.022 17.206 22.704-13.202 30.409-42.313 17.206-65.017l-82.229 47.81zM692.384 466.973c28.259 62.25 90.479 102.060 158.845 101.627l-0.599-95.112c-30.832 0.19-58.892-17.764-71.637-45.832l-86.608 39.317zM850.302 568.597c94.656 1.25 172.418-74.458 173.693-169.113l-95.108-1.284c-0.565 42.142-35.188 75.846-77.33 75.29l-1.255 95.108zM1024 398.841v-244.527h-95.117v244.527h95.117zM1023.995 153.559c-1.498-94.504-79.189-169.969-173.697-168.714l1.26 95.108c42.075-0.556 76.665 33.039 77.335 75.114l95.103-1.507zM851.301-15.16c-74.315-0.585-140.688 46.403-164.828 116.695l89.957 30.894c10.857-31.607 40.706-52.738 74.124-52.476l0.747-95.112zM779.14 427.98c-4.075-9.155-6.178-19.071-6.169-29.096l-95.117-0.086c-0.019 23.375 4.879 46.498 14.386 67.857l86.899-38.675zM772.972 398.841v-244.527h-95.117v244.527h95.117zM772.972 153.986c-0.052-7.662 1.127-15.275 3.486-22.561l-90.475-29.343c-5.507 16.974-8.246 34.723-8.123 52.562l95.112-0.656zM693.112 426.126c-6.639 13.335-16.165 25.030-27.884 34.223l58.711 74.834c22.838-17.916 41.39-40.691 54.326-66.677l-85.154-42.379zM666.503 459.383c-18.91 13.83-32.763 33.481-39.445 55.938l91.165 27.128c0.751-2.53 2.312-4.742 4.442-6.297l-56.162-76.769zM626.583 517.029l-62.758 243.83 92.115 23.708 62.758-243.831-92.115-23.708zM564.219 759.424c-8.094 27.816-36.972 44.031-64.937 36.465l-24.839 91.816c77.995 21.102 158.527-24.124 181.103-101.704l-91.326-26.577zM498.193 795.608c-13.017-3.192-24.203-11.482-31.042-23.006l-81.797 48.54c19.871 33.482 52.368 57.572 90.182 66.845l22.656-92.379zM467.153 772.602c-6.834-11.524-8.756-25.313-5.321-38.266l-91.938-24.378c-9.978 37.635-4.406 77.7 15.462 111.184l81.797-48.54zM461.712 734.779l35.878-130.217-91.697-25.265-35.879 130.217 91.699 25.265zM497.785 603.842c7.572-29.262 1.028-60.385-17.692-84.121l-74.691 58.895c0.313 0.396 0.424 0.915 0.295 1.404l92.088 23.822zM480.093 519.72c-18.715-23.732-47.449-37.357-77.668-36.819l1.684 95.103c0.504-0.009 0.98 0.216 1.293 0.613l74.691-58.895zM403.267 482.892h-205.052v95.117h205.052v-95.117zM197.562 482.896c-26.811 0.37-52.668-9.93-71.882-28.635l-66.345 68.161c37.297 36.302 87.493 56.299 139.537 55.582l-1.309-95.108zM125.679 454.261c-19.214-18.699-30.207-44.273-30.561-71.086l-95.109 1.255c0.686 52.044 22.027 101.685 59.324 137.99l66.346-68.161zM95.122 383.803v-195.47h-95.117v195.47h95.117zM95.117 188.98c0.365-26.804 11.362-52.367 30.575-71.061l-66.332-68.17c-37.294 36.292-58.645 85.909-59.351 137.938l95.108 1.293zM125.692 117.918c19.213-18.69 45.064-28.987 71.869-28.621l1.31-95.108c-52.031-0.713-102.216 19.271-139.51 55.557l66.332 68.17zM198.215 89.302h401.682v-95.117h-401.682v95.117zM600.135 89.302c37.134-0.186 71.533 19.489 90.2 51.586l82.229-47.81c-35.783-61.536-101.727-99.249-172.908-98.893l0.481 95.117z" />
<glyph unicode="&#xe93c;" horiz-adv-x="4216" d="M2928.363-25.196h-245.736c-29.142 0-52.742 24.443-52.742 54.621s23.6 54.621 52.742 54.621h245.736c29.136 0 52.742-24.443 52.742-54.621s-23.606-54.621-52.742-54.621z" />
<glyph unicode="&#xe93d;" horiz-adv-x="4216" d="M1680.125-29.196h-245.736c-29.136 0-52.742 24.443-52.742 54.621 0 30.172 23.606 54.621 52.742 54.621h245.736c29.142 0 52.748-24.45 52.748-54.621 0-30.178-23.606-54.621-52.748-54.621z" />
<glyph unicode="&#xe93e;" horiz-adv-x="4216" d="M3369.412-29.521h-47.694c-53.971 0-97.678 45.267-97.678 101.147 0 55.886 43.707 101.147 97.678 101.147h47.694c59.097 0 113.79 20.064 158.069 53.862-12.776-1.518-25.72-2.277-38.822-2.277-189.488 0-343.245 159.225-343.245 354.945s153.757 354.858 342.673 354.858c188.922 0 343.245-159.223 343.245-354.943v-130.48c0-263.738-207.234-478.345-461.92-478.345v0.084zM3488.66 731.867c-81.806 0-147.896-68.443-147.896-152.648s66.090-152.648 147.408-152.648c81.312 0 147.649 68.274 147.896 152.142v0.505c0 84.121-66.096 152.648-147.408 152.648z" />
<glyph unicode="&#xe93f;" horiz-adv-x="4216" d="M224.083-29.521h-47.698c-53.966 0-97.675 45.267-97.675 101.147 0 55.886 43.709 101.147 97.675 101.147h47.698c57.791 0 111.349 19.137 155.059 51.586h-36.384c-189.001 0-342.758 159.225-342.758 354.861s153.757 354.943 342.758 354.943c189.001 0 343.244-159.223 343.244-354.943v-130.48c0-5.9-0.078-11.8-0.325-17.701l-0.404-206.764h-53.314c-77.734-150.962-231.41-253.88-407.875-253.88v0.084zM343.328 731.867c-81.803 0-147.896-68.443-147.896-152.648s66.093-152.648 147.408-152.648h147.083c0.244 2.95 0.407 5.984 0.57 8.935l0.325 143.629c0 84.121-66.093 152.648-147.408 152.648l-0.081 0.084z" />
<glyph unicode="&#xe940;" horiz-adv-x="4216" d="M2700.258 206.547h-39.4c-101.256 0-198.602 44.249-267.138 121.543l-339.992 383.181c-36.466 41.133-33.858 105.109 5.861 142.955 39.719 37.762 101.502 35.065 138.047-6.069l339.992-383.18c31.581-35.654 76.589-56.053 123.314-56.053h39.394c92.305 0 167.43 77.799 167.43 173.384v87.913c0 55.884 43.713 101.148 97.678 101.148s97.678-45.264 97.678-101.148v-87.913c0-207.184-162.714-375.677-362.785-375.677l-0.078-0.084z" />
<glyph unicode="&#xe941;" horiz-adv-x="4216" d="M2247.475 206.336h-307.917c-53.965 0-97.678 45.267-97.678 101.147 0 55.886 43.713 101.15 97.678 101.15h307.917c53.971 0 97.678-45.264 97.678-101.15 0-55.88-43.707-101.147-97.678-101.147z" />
<glyph unicode="&#xe942;" horiz-adv-x="4216" d="M1403.067 216.558h-865.157c-53.965 0-97.675 45.261-97.675 101.147 0 55.884 43.71 101.148 97.675 101.148h865.157c91.166 0 165.316 76.787 165.316 171.192v76.029c0 55.884 43.713 101.147 97.678 101.147s97.672-45.263 97.672-101.147v-76.029c0-205.919-161.816-373.487-360.665-373.487z" />
<glyph unicode="&#xe943;" horiz-adv-x="4216" d="M945.61 812.037h-0.090c-45.411 0-82.227-38.122-82.227-85.148v-0.096c0-47.026 36.816-85.147 82.227-85.147h0.090c45.411 0 82.227 38.122 82.227 85.147v0.096c0 47.026-36.816 85.148-82.227 85.148z" />
<glyph unicode="&#xe944;" horiz-adv-x="4216" d="M3870.449-29.618c-39.153 0-76.029 24.528-91.088 64.56-19.534 52.091 5.373 110.676 55.675 130.903 112.977 45.435 185.91 155.937 185.91 281.443v142.196c0 55.884 43.713 101.148 97.678 101.148s97.672-45.264 97.672-101.148v-142.196c0-209.546-121.928-394.053-310.525-469.997-11.637-4.722-23.606-6.909-35.322-6.909z" />
<glyph unicode="&#xe945;" glyph-name="contact-us" horiz-adv-x="723" d="M254.999 246.906l-0.072 0.215-13.737 4.482c-65.334 23.098-122.653 64.478-165.133 119.226-34.351 44.235-57.954 95.846-68.948 150.763s-9.078 111.636 5.599 165.685c14.675 54.049 41.709 103.95 78.967 145.765s83.723 74.401 135.728 95.188c52.006 20.787 108.13 29.207 163.947 24.594s109.797-22.131 157.685-51.173c47.888-29.042 88.371-68.814 118.264-116.178 29.887-47.363 48.358-101.025 53.965-156.749 1.953-19.883-14.463-36.078-34.413-36.078-19.956 0-35.937 16.267-38.32 36.078-6.454 51.129-26.448 99.604-57.924 140.411-31.473 40.806-73.278 72.463-121.091 91.692s-99.894 25.333-150.857 17.681c-50.963-7.653-98.955-28.784-139.011-61.207s-70.721-74.961-88.82-123.213c-18.1-48.251-22.979-100.462-14.13-151.23s31.101-98.251 64.458-137.533c33.355-39.283 76.603-68.938 125.266-85.898 12.274 22.383 32.055 39.725 55.857 48.964s50.101 9.781 74.265 1.534c24.164-8.246 44.643-24.751 57.832-46.617 13.188-21.859 18.242-47.675 14.269-72.897s-16.718-48.232-35.988-64.977c-19.271-16.751-43.834-26.164-69.364-26.581s-50.387 8.179-70.196 24.292c-19.81 16.107-33.302 38.687-38.099 63.763zM197.665 190.874c-70.81 28.908-132.718 76.027-179.449 136.572-11.878-17.813-18.217-38.743-18.219-60.154v-36.146c0-142.508 134.478-289.2 361.501-289.2s361.505 146.693 361.505 289.2v36.146c-0.006 28.762-11.429 56.349-31.764 76.69-20.342 20.336-47.928 31.762-76.69 31.762h-108.449c15.164-20.252 25.908-43.463 31.536-68.129s6.015-50.236 1.137-75.065c-4.879-24.823-14.915-48.346-29.459-69.048s-33.272-38.124-54.974-51.127c-21.7-13.009-45.89-21.315-71.003-24.382-25.113-3.072-50.591-0.834-74.785 6.567-24.194 7.396-46.565 19.792-65.666 36.385-19.101 16.587-34.506 37.005-45.219 59.926zM578.397 592.645c0 66.082-29.57 125.297-76.204 165.061-22.77 19.287-49.273 33.667-77.854 42.243s-58.623 11.162-88.248 7.598c-29.626-3.565-58.198-13.204-83.928-28.315s-48.066-35.368-65.61-59.505c-17.545-24.137-29.92-51.633-36.352-80.772s-6.783-59.289-1.031-88.57c5.752-29.279 17.484-57.058 34.461-81.596s38.837-45.31 64.208-61.015c32.15 26.064 72.27 40.304 113.656 40.344 41.369 0.002 81.487-14.187 113.655-40.199 31.552 19.411 57.606 46.58 75.679 78.918s27.564 68.765 27.566 105.81z" />
</font>
</defs>
</svg>
